<mxfile host="app.diagrams.net" modified="2023-09-16T00:47:18.325Z" agent="Mozilla/5.0 (Windows NT 10.0; Win64; x64) AppleWebKit/537.36 (KHTML, like Gecko) Chrome/117.0.0.0 Safari/537.36" etag="QVoMFMz7q8KsBUTmkIrU" version="21.7.5" type="github">
  <diagram name="Page-1" id="2YBvvXClWsGukQMizWep">
    <mxGraphModel dx="1434" dy="750" grid="1" gridSize="10" guides="1" tooltips="1" connect="1" arrows="1" fold="1" page="1" pageScale="1" pageWidth="850" pageHeight="1100" math="0" shadow="0">
      <root>
        <mxCell id="0" />
        <mxCell id="1" parent="0" />
        <mxCell id="C7F50TyN4lhKV5bqTHEb-57" value="" style="edgeStyle=orthogonalEdgeStyle;rounded=0;orthogonalLoop=1;jettySize=auto;html=1;" edge="1" parent="1" source="C7F50TyN4lhKV5bqTHEb-7" target="C7F50TyN4lhKV5bqTHEb-56">
          <mxGeometry relative="1" as="geometry" />
        </mxCell>
        <mxCell id="C7F50TyN4lhKV5bqTHEb-7" value="Orçamento" style="rounded=1;whiteSpace=wrap;html=1;" vertex="1" parent="1">
          <mxGeometry x="40" y="30" width="120" height="60" as="geometry" />
        </mxCell>
        <mxCell id="C7F50TyN4lhKV5bqTHEb-11" value="" style="edgeStyle=orthogonalEdgeStyle;rounded=0;orthogonalLoop=1;jettySize=auto;html=1;" edge="1" parent="1" source="C7F50TyN4lhKV5bqTHEb-8" target="C7F50TyN4lhKV5bqTHEb-10">
          <mxGeometry relative="1" as="geometry" />
        </mxCell>
        <mxCell id="C7F50TyN4lhKV5bqTHEb-8" value="Orçamento a Fazer" style="whiteSpace=wrap;html=1;rounded=1;" vertex="1" parent="1">
          <mxGeometry x="365.5" y="30" width="120" height="60" as="geometry" />
        </mxCell>
        <mxCell id="C7F50TyN4lhKV5bqTHEb-13" value="" style="edgeStyle=orthogonalEdgeStyle;rounded=0;orthogonalLoop=1;jettySize=auto;html=1;entryX=0.5;entryY=0;entryDx=0;entryDy=0;exitX=0.5;exitY=1;exitDx=0;exitDy=0;" edge="1" parent="1" source="C7F50TyN4lhKV5bqTHEb-10" target="C7F50TyN4lhKV5bqTHEb-12">
          <mxGeometry relative="1" as="geometry">
            <Array as="points">
              <mxPoint x="581" y="120" />
              <mxPoint x="511" y="120" />
            </Array>
          </mxGeometry>
        </mxCell>
        <mxCell id="C7F50TyN4lhKV5bqTHEb-10" value="Orçamento em aprovação" style="whiteSpace=wrap;html=1;rounded=1;" vertex="1" parent="1">
          <mxGeometry x="520.5" y="30" width="120" height="60" as="geometry" />
        </mxCell>
        <mxCell id="C7F50TyN4lhKV5bqTHEb-38" style="edgeStyle=orthogonalEdgeStyle;rounded=0;orthogonalLoop=1;jettySize=auto;html=1;entryX=0.5;entryY=0;entryDx=0;entryDy=0;" edge="1" parent="1" source="C7F50TyN4lhKV5bqTHEb-12" target="C7F50TyN4lhKV5bqTHEb-30">
          <mxGeometry relative="1" as="geometry" />
        </mxCell>
        <mxCell id="C7F50TyN4lhKV5bqTHEb-39" style="edgeStyle=orthogonalEdgeStyle;rounded=0;orthogonalLoop=1;jettySize=auto;html=1;entryX=0.5;entryY=0;entryDx=0;entryDy=0;" edge="1" parent="1" source="C7F50TyN4lhKV5bqTHEb-12" target="C7F50TyN4lhKV5bqTHEb-14">
          <mxGeometry relative="1" as="geometry" />
        </mxCell>
        <mxCell id="C7F50TyN4lhKV5bqTHEb-12" value="Orçamento aprovado" style="whiteSpace=wrap;html=1;rounded=1;" vertex="1" parent="1">
          <mxGeometry x="450.5" y="150" width="120" height="60" as="geometry" />
        </mxCell>
        <mxCell id="C7F50TyN4lhKV5bqTHEb-40" style="edgeStyle=orthogonalEdgeStyle;rounded=0;orthogonalLoop=1;jettySize=auto;html=1;entryX=0.5;entryY=0;entryDx=0;entryDy=0;" edge="1" parent="1" source="C7F50TyN4lhKV5bqTHEb-14" target="C7F50TyN4lhKV5bqTHEb-16">
          <mxGeometry relative="1" as="geometry" />
        </mxCell>
        <mxCell id="C7F50TyN4lhKV5bqTHEb-14" value="Criar Ordens de Serviço" style="whiteSpace=wrap;html=1;rounded=1;" vertex="1" parent="1">
          <mxGeometry x="545.5" y="270" width="120" height="60" as="geometry" />
        </mxCell>
        <mxCell id="C7F50TyN4lhKV5bqTHEb-41" style="edgeStyle=orthogonalEdgeStyle;rounded=0;orthogonalLoop=1;jettySize=auto;html=1;" edge="1" parent="1" source="C7F50TyN4lhKV5bqTHEb-16" target="C7F50TyN4lhKV5bqTHEb-18">
          <mxGeometry relative="1" as="geometry" />
        </mxCell>
        <mxCell id="C7F50TyN4lhKV5bqTHEb-16" value="Ordem de serviço a fazer" style="whiteSpace=wrap;html=1;rounded=1;" vertex="1" parent="1">
          <mxGeometry x="545.5" y="370" width="120" height="60" as="geometry" />
        </mxCell>
        <mxCell id="C7F50TyN4lhKV5bqTHEb-21" value="" style="edgeStyle=orthogonalEdgeStyle;rounded=0;orthogonalLoop=1;jettySize=auto;html=1;" edge="1" parent="1" source="C7F50TyN4lhKV5bqTHEb-18" target="C7F50TyN4lhKV5bqTHEb-20">
          <mxGeometry relative="1" as="geometry" />
        </mxCell>
        <mxCell id="C7F50TyN4lhKV5bqTHEb-18" value="Ordem de serviço em aprovação" style="whiteSpace=wrap;html=1;rounded=1;" vertex="1" parent="1">
          <mxGeometry x="545.5" y="470" width="120" height="60" as="geometry" />
        </mxCell>
        <mxCell id="C7F50TyN4lhKV5bqTHEb-23" value="" style="edgeStyle=orthogonalEdgeStyle;rounded=0;orthogonalLoop=1;jettySize=auto;html=1;" edge="1" parent="1" source="C7F50TyN4lhKV5bqTHEb-20" target="C7F50TyN4lhKV5bqTHEb-22">
          <mxGeometry relative="1" as="geometry" />
        </mxCell>
        <mxCell id="C7F50TyN4lhKV5bqTHEb-20" value="Ordem de serviço aprovada" style="whiteSpace=wrap;html=1;rounded=1;" vertex="1" parent="1">
          <mxGeometry x="545.5" y="570" width="120" height="60" as="geometry" />
        </mxCell>
        <mxCell id="C7F50TyN4lhKV5bqTHEb-45" value="" style="edgeStyle=orthogonalEdgeStyle;rounded=0;orthogonalLoop=1;jettySize=auto;html=1;" edge="1" parent="1" source="C7F50TyN4lhKV5bqTHEb-22" target="C7F50TyN4lhKV5bqTHEb-44">
          <mxGeometry relative="1" as="geometry" />
        </mxCell>
        <mxCell id="C7F50TyN4lhKV5bqTHEb-22" value="Ordem em produção" style="whiteSpace=wrap;html=1;rounded=1;" vertex="1" parent="1">
          <mxGeometry x="545.5" y="680" width="120" height="60" as="geometry" />
        </mxCell>
        <mxCell id="C7F50TyN4lhKV5bqTHEb-37" value="" style="edgeStyle=orthogonalEdgeStyle;rounded=0;orthogonalLoop=1;jettySize=auto;html=1;" edge="1" parent="1" source="C7F50TyN4lhKV5bqTHEb-30" target="C7F50TyN4lhKV5bqTHEb-36">
          <mxGeometry relative="1" as="geometry" />
        </mxCell>
        <mxCell id="C7F50TyN4lhKV5bqTHEb-30" value="Realizar pagamento" style="whiteSpace=wrap;html=1;rounded=1;" vertex="1" parent="1">
          <mxGeometry x="365.5" y="270" width="120" height="60" as="geometry" />
        </mxCell>
        <mxCell id="C7F50TyN4lhKV5bqTHEb-43" value="" style="edgeStyle=orthogonalEdgeStyle;rounded=0;orthogonalLoop=1;jettySize=auto;html=1;" edge="1" parent="1" source="C7F50TyN4lhKV5bqTHEb-36" target="C7F50TyN4lhKV5bqTHEb-42">
          <mxGeometry relative="1" as="geometry" />
        </mxCell>
        <mxCell id="C7F50TyN4lhKV5bqTHEb-36" value="Pagamento Realizado" style="whiteSpace=wrap;html=1;rounded=1;" vertex="1" parent="1">
          <mxGeometry x="365.5" y="390" width="120" height="60" as="geometry" />
        </mxCell>
        <mxCell id="C7F50TyN4lhKV5bqTHEb-42" value="Gerar Recibo" style="whiteSpace=wrap;html=1;rounded=1;" vertex="1" parent="1">
          <mxGeometry x="365.5" y="510" width="120" height="60" as="geometry" />
        </mxCell>
        <mxCell id="C7F50TyN4lhKV5bqTHEb-49" value="" style="edgeStyle=orthogonalEdgeStyle;rounded=0;orthogonalLoop=1;jettySize=auto;html=1;" edge="1" parent="1" source="C7F50TyN4lhKV5bqTHEb-44" target="C7F50TyN4lhKV5bqTHEb-48">
          <mxGeometry relative="1" as="geometry" />
        </mxCell>
        <mxCell id="C7F50TyN4lhKV5bqTHEb-44" value="Ordem em Acabamento" style="whiteSpace=wrap;html=1;rounded=1;" vertex="1" parent="1">
          <mxGeometry x="545.5" y="790" width="120" height="60" as="geometry" />
        </mxCell>
        <mxCell id="C7F50TyN4lhKV5bqTHEb-55" value="" style="edgeStyle=orthogonalEdgeStyle;rounded=0;orthogonalLoop=1;jettySize=auto;html=1;entryX=1;entryY=0.5;entryDx=0;entryDy=0;" edge="1" parent="1" target="C7F50TyN4lhKV5bqTHEb-54">
          <mxGeometry relative="1" as="geometry">
            <mxPoint x="545.5" y="1030" as="sourcePoint" />
            <mxPoint x="485.5" y="1030" as="targetPoint" />
          </mxGeometry>
        </mxCell>
        <mxCell id="C7F50TyN4lhKV5bqTHEb-46" value="Ordem Finalizada" style="whiteSpace=wrap;html=1;rounded=1;" vertex="1" parent="1">
          <mxGeometry x="532.5" y="1000" width="120" height="60" as="geometry" />
        </mxCell>
        <mxCell id="C7F50TyN4lhKV5bqTHEb-50" style="edgeStyle=orthogonalEdgeStyle;rounded=0;orthogonalLoop=1;jettySize=auto;html=1;entryX=1;entryY=0.5;entryDx=0;entryDy=0;" edge="1" parent="1" source="C7F50TyN4lhKV5bqTHEb-48" target="C7F50TyN4lhKV5bqTHEb-22">
          <mxGeometry relative="1" as="geometry">
            <Array as="points">
              <mxPoint x="724.5" y="920" />
              <mxPoint x="724.5" y="710" />
            </Array>
          </mxGeometry>
        </mxCell>
        <mxCell id="C7F50TyN4lhKV5bqTHEb-80" value="Não" style="edgeLabel;html=1;align=center;verticalAlign=middle;resizable=0;points=[];" vertex="1" connectable="0" parent="C7F50TyN4lhKV5bqTHEb-50">
          <mxGeometry x="-0.0172" y="1" relative="1" as="geometry">
            <mxPoint x="1" as="offset" />
          </mxGeometry>
        </mxCell>
        <mxCell id="C7F50TyN4lhKV5bqTHEb-51" style="edgeStyle=orthogonalEdgeStyle;rounded=0;orthogonalLoop=1;jettySize=auto;html=1;entryX=0.5;entryY=0;entryDx=0;entryDy=0;" edge="1" parent="1" source="C7F50TyN4lhKV5bqTHEb-48">
          <mxGeometry relative="1" as="geometry">
            <mxPoint x="605.5" y="1000" as="targetPoint" />
          </mxGeometry>
        </mxCell>
        <mxCell id="C7F50TyN4lhKV5bqTHEb-81" value="Sim" style="edgeLabel;html=1;align=center;verticalAlign=middle;resizable=0;points=[];" vertex="1" connectable="0" parent="C7F50TyN4lhKV5bqTHEb-51">
          <mxGeometry x="-0.21" relative="1" as="geometry">
            <mxPoint as="offset" />
          </mxGeometry>
        </mxCell>
        <mxCell id="C7F50TyN4lhKV5bqTHEb-48" value="Tudo certo?" style="rhombus;whiteSpace=wrap;html=1;rounded=1;" vertex="1" parent="1">
          <mxGeometry x="565.5" y="880" width="80" height="80" as="geometry" />
        </mxCell>
        <mxCell id="C7F50TyN4lhKV5bqTHEb-54" value="Gerar Etiqueta" style="whiteSpace=wrap;html=1;rounded=1;" vertex="1" parent="1">
          <mxGeometry x="365" y="1000" width="120" height="60" as="geometry" />
        </mxCell>
        <mxCell id="C7F50TyN4lhKV5bqTHEb-60" value="" style="edgeStyle=orthogonalEdgeStyle;rounded=0;orthogonalLoop=1;jettySize=auto;html=1;" edge="1" parent="1" source="C7F50TyN4lhKV5bqTHEb-56" target="C7F50TyN4lhKV5bqTHEb-59">
          <mxGeometry relative="1" as="geometry" />
        </mxCell>
        <mxCell id="C7F50TyN4lhKV5bqTHEb-79" value="Sim" style="edgeLabel;html=1;align=center;verticalAlign=middle;resizable=0;points=[];" vertex="1" connectable="0" parent="C7F50TyN4lhKV5bqTHEb-60">
          <mxGeometry x="-0.2" y="3" relative="1" as="geometry">
            <mxPoint x="-3" y="2" as="offset" />
          </mxGeometry>
        </mxCell>
        <mxCell id="C7F50TyN4lhKV5bqTHEb-73" value="" style="edgeStyle=orthogonalEdgeStyle;rounded=0;orthogonalLoop=1;jettySize=auto;html=1;" edge="1" parent="1" source="C7F50TyN4lhKV5bqTHEb-56" target="C7F50TyN4lhKV5bqTHEb-72">
          <mxGeometry relative="1" as="geometry" />
        </mxCell>
        <mxCell id="C7F50TyN4lhKV5bqTHEb-75" value="Não" style="edgeLabel;html=1;align=center;verticalAlign=middle;resizable=0;points=[];" vertex="1" connectable="0" parent="C7F50TyN4lhKV5bqTHEb-73">
          <mxGeometry x="0.09" y="1" relative="1" as="geometry">
            <mxPoint x="-29" y="1" as="offset" />
          </mxGeometry>
        </mxCell>
        <mxCell id="C7F50TyN4lhKV5bqTHEb-56" value="É carimbo" style="rhombus;whiteSpace=wrap;html=1;rounded=1;" vertex="1" parent="1">
          <mxGeometry x="60" y="120" width="80" height="80" as="geometry" />
        </mxCell>
        <mxCell id="C7F50TyN4lhKV5bqTHEb-62" value="" style="edgeStyle=orthogonalEdgeStyle;rounded=0;orthogonalLoop=1;jettySize=auto;html=1;" edge="1" parent="1" source="C7F50TyN4lhKV5bqTHEb-59" target="C7F50TyN4lhKV5bqTHEb-61">
          <mxGeometry relative="1" as="geometry" />
        </mxCell>
        <mxCell id="C7F50TyN4lhKV5bqTHEb-59" value="Verificar Estoque" style="whiteSpace=wrap;html=1;rounded=1;" vertex="1" parent="1">
          <mxGeometry x="40" y="270" width="120" height="60" as="geometry" />
        </mxCell>
        <mxCell id="C7F50TyN4lhKV5bqTHEb-65" value="" style="edgeStyle=orthogonalEdgeStyle;rounded=0;orthogonalLoop=1;jettySize=auto;html=1;" edge="1" parent="1" source="C7F50TyN4lhKV5bqTHEb-61" target="C7F50TyN4lhKV5bqTHEb-64">
          <mxGeometry relative="1" as="geometry" />
        </mxCell>
        <mxCell id="C7F50TyN4lhKV5bqTHEb-77" value="Não" style="edgeLabel;html=1;align=center;verticalAlign=middle;resizable=0;points=[];" vertex="1" connectable="0" parent="C7F50TyN4lhKV5bqTHEb-65">
          <mxGeometry x="-0.2857" y="5" relative="1" as="geometry">
            <mxPoint x="-5" y="5" as="offset" />
          </mxGeometry>
        </mxCell>
        <mxCell id="C7F50TyN4lhKV5bqTHEb-82" style="edgeStyle=orthogonalEdgeStyle;rounded=0;orthogonalLoop=1;jettySize=auto;html=1;entryX=0.5;entryY=1;entryDx=0;entryDy=0;" edge="1" parent="1" source="C7F50TyN4lhKV5bqTHEb-61" target="C7F50TyN4lhKV5bqTHEb-72">
          <mxGeometry relative="1" as="geometry" />
        </mxCell>
        <mxCell id="C7F50TyN4lhKV5bqTHEb-83" value="Sim" style="edgeLabel;html=1;align=center;verticalAlign=middle;resizable=0;points=[];" vertex="1" connectable="0" parent="C7F50TyN4lhKV5bqTHEb-82">
          <mxGeometry x="-0.6864" y="2" relative="1" as="geometry">
            <mxPoint as="offset" />
          </mxGeometry>
        </mxCell>
        <mxCell id="C7F50TyN4lhKV5bqTHEb-61" value="Tem?" style="rhombus;whiteSpace=wrap;html=1;rounded=1;" vertex="1" parent="1">
          <mxGeometry x="60" y="360" width="80" height="80" as="geometry" />
        </mxCell>
        <mxCell id="C7F50TyN4lhKV5bqTHEb-64" value="Informar o Usuario" style="whiteSpace=wrap;html=1;rounded=1;" vertex="1" parent="1">
          <mxGeometry x="40" y="480" width="120" height="60" as="geometry" />
        </mxCell>
        <mxCell id="C7F50TyN4lhKV5bqTHEb-74" style="edgeStyle=orthogonalEdgeStyle;rounded=0;orthogonalLoop=1;jettySize=auto;html=1;entryX=0;entryY=0.5;entryDx=0;entryDy=0;" edge="1" parent="1" source="C7F50TyN4lhKV5bqTHEb-72" target="C7F50TyN4lhKV5bqTHEb-8">
          <mxGeometry relative="1" as="geometry" />
        </mxCell>
        <mxCell id="C7F50TyN4lhKV5bqTHEb-72" value="Gerar Orçamento" style="whiteSpace=wrap;html=1;rounded=1;" vertex="1" parent="1">
          <mxGeometry x="210" y="30" width="120" height="60" as="geometry" />
        </mxCell>
      </root>
    </mxGraphModel>
  </diagram>
</mxfile>
